<svg xmlns="http://www.w3.org/2000/svg" data-name="Layer 1" viewBox="0 0 512 512"><path fill="#709653" d="M205.44994,71.69564a3.50313,3.50313,0,0,1-3.40918-4.30664c1.18017-4.98829,6.29541-21.86524,22.59082-29.60352a38.59071,38.59071,0,0,1,16.16357-3.67773l.04737-.00049a3.49991,3.49991,0,0,1,.04541,6.99951,31.6417,31.6417,0,0,0-13.25342,3.002c-13.47852,6.40088-17.7832,20.67041-18.78125,24.8916A3.50239,3.50239,0,0,1,205.44994,71.69564Z"/><path fill="#cc938b" d="M275.7826,119.57032q-15.18556,8.64057-30.37091,17.28113a138.26326,138.26326,0,0,1-5.71035-126.17559A11.436,11.436,0,0,1,255.75,5.43707l10.636,6.05188a11.32382,11.32382,0,0,1,4.76548,14.46018A103.45879,103.45879,0,0,0,275.7826,119.57032Z"/><path fill="#ffbc5b" d="M146.12042,461.04879c11.06,11.36789,42.91578,41.02673,91.324,46.23005,67.327,7.23709,115.39614-38.34352,123.8544-46.36377,84.64229-80.25993,90.65985-276.09941-15.74088-339.93573-67.16867-40.29878-176.91308-26.65741-225.01437,37.7121C98.11723,188.70261,84.646,235.9777,95.0682,279.12975c14.64046,60.6174,64.82558,79.18215,63.5777,135.58358C158.19663,435.0189,151.2503,451.28606,146.12042,461.04879Z"/><path fill="#ffbc5b" d="M146.12042,461.04879c11.06,11.36789,42.91578,41.02673,91.324,46.23005,67.327,7.23709,115.39614-38.34352,123.8544-46.36377,84.64229-80.25993,90.65985-276.09941-15.74088-339.93573-67.16867-40.29878-176.91308-26.65741-225.01437,37.7121C98.11723,188.70261,84.646,235.9777,95.0682,279.12975c14.64046,60.6174,64.82558,79.18215,63.5777,135.58358C158.19663,435.0189,151.2503,451.28606,146.12042,461.04879Z"/><path fill="#ffbc5b" d="M146.12042,461.04879c11.06,11.36789,42.91578,41.02673,91.324,46.23005,67.327,7.23709,115.39614-38.34352,123.8544-46.36377,84.64229-80.25993,90.65985-276.09941-15.74088-339.93573-67.16867-40.29878-176.91308-26.65741-225.01437,37.7121C98.11723,188.70261,84.646,235.9777,95.0682,279.12975c14.64046,60.6174,64.82558,79.18215,63.5777,135.58358C158.19663,435.0189,151.2503,451.28606,146.12042,461.04879Z"/><path fill="#e88f37" d="M239.39482,98.98372c-46.72021,4.00244-92.228,24.08032-118.85125,59.70777-22.42633,30.011-35.89759,77.28613-25.47535,120.43823a134.7388,134.7388,0,0,0,16.03113,38.39844c19.84992-52.05738,44.2334-86.39454,65.20465-109.46363,17.64258-19.40747,52.59742-52.55566,62.50483-105.71972Q239.125,100.64888,239.39482,98.98372Z"/><path fill="#8fd17a" d="M65.012,368.0163a4.002,4.002,0,0,1-7.39794.86538c-35.692-67.28055-35.25-147.40447,2.35085-211.28735,45.06123-76.55781,123.98719-96.65664,146.21775-101.0626A4.00227,4.00227,0,0,1,210.95,60.15337a160.82142,160.82142,0,0,1-2.14117,42.19143c-9.90741,53.16417-44.86228,86.31231-62.50482,105.71977C119.18652,237.89465,86.35652,286.53811,65.012,368.0163Z"/><path fill="#e88f37" d="M277.46631,284.85984a18.22616,18.22616,0,0,0-9.45166.332c-21.20483,6.92725-21.55224,57.16065-21.61279,65.916-.13745,19.8872,2.89868,77.41113,47.60034,119.66113a149.96776,149.96776,0,0,0,26.11817,19.74756A183.50483,183.50483,0,0,0,361.29883,460.915c-3.17309-11.52247,20.14454-20.91358,38.19019-53.84034a242.986,242.986,0,0,0,12.18726-30.59326Q344.57141,330.67063,277.46631,284.85984Z"/><path fill="#ffbc5b" d="M278.305,285.53653a4.99852,4.99852,0,0,0-7.388.33507c-30.03005,36.57358-11.11308,108.272,44.29873,163.68383S442.326,523.88421,478.89959,493.85416a4.99852,4.99852,0,0,0,.33507-7.388Z"/><path fill="#f24f2a" d="M321.04224,443.04237c-52.97705-52.97705-72.59033-120.83691-47.96972-158.65966a4.872,4.872,0,0,0-2.15552,1.48877c-30.03,36.57373-11.113,108.272,44.29883,163.68408,55.41186,55.41162,127.1101,74.32861,163.68383,44.29883a4.92091,4.92091,0,0,0,1.78394-3.49854C443.063,515.9706,374.48121,496.48134,321.04224,443.04237Z"/></svg>